<?xml version="1.0" encoding="UTF-8" standalone="no"?>
<!-- Created with Inkscape (http://www.inkscape.org/) -->

<svg
   xmlns:dc="http://purl.org/dc/elements/1.1/"
   xmlns:cc="http://creativecommons.org/ns#"
   xmlns:rdf="http://www.w3.org/1999/02/22-rdf-syntax-ns#"
   xmlns:svg="http://www.w3.org/2000/svg"
   xmlns="http://www.w3.org/2000/svg"
   xmlns:xlink="http://www.w3.org/1999/xlink"
   xmlns:sodipodi="http://sodipodi.sourceforge.net/DTD/sodipodi-0.dtd"
   xmlns:inkscape="http://www.inkscape.org/namespaces/inkscape"
   width="400"
   height="400"
   id="svg2"
   version="1.1"
   inkscape:version="0.47 r22583"
   sodipodi:docname="correlation.svg"
   inkscape:export-filename="/home/lompolbx/workspace/src/ObjectRecognitionPlugins/icons/simple_summation.png"
   inkscape:export-xdpi="9"
   inkscape:export-ydpi="9">
  <sodipodi:namedview
     id="base"
     pagecolor="#ffffff"
     bordercolor="#666666"
     borderopacity="1.0"
     inkscape:pageopacity="0.0"
     inkscape:pageshadow="2"
     inkscape:zoom="1.4"
     inkscape:cx="298.29296"
     inkscape:cy="198.78855"
     inkscape:document-units="px"
     inkscape:current-layer="layer1"
     showgrid="false"
     inkscape:window-width="1920"
     inkscape:window-height="1007"
     inkscape:window-x="0"
     inkscape:window-y="25"
     inkscape:window-maximized="1"
     showguides="true"
     inkscape:guide-bbox="true" />
  <defs
     id="defs4">
    <linearGradient
       id="linearGradient3740">
      <stop
         id="stop3742"
         offset="0"
         style="stop-color:#1a60ff;stop-opacity:1;" />
      <stop
         id="stop3744"
         offset="1"
         style="stop-color:#003abd;stop-opacity:1;" />
    </linearGradient>
    <linearGradient
       id="linearGradient3730">
      <stop
         style="stop-color:#1aff2a;stop-opacity:1;"
         offset="0"
         id="stop3732" />
      <stop
         style="stop-color:#00bd0d;stop-opacity:1;"
         offset="1"
         id="stop3734" />
    </linearGradient>
    <linearGradient
       id="linearGradient3718">
      <stop
         id="stop3720"
         offset="0"
         style="stop-color:#ff1a1a;stop-opacity:1;" />
      <stop
         id="stop3722"
         offset="1"
         style="stop-color:#bd0000;stop-opacity:1;" />
    </linearGradient>
    <marker
       inkscape:stockid="Arrow1Sstart"
       orient="auto"
       refY="0.0"
       refX="0.0"
       id="Arrow1Sstart"
       style="overflow:visible">
      <path
         id="path3903"
         d="M 0.0,0.0 L 5.0,-5.0 L -12.5,0.0 L 5.0,5.0 L 0.0,0.0 z "
         style="fill-rule:evenodd;stroke:#000000;stroke-width:1.0pt;marker-start:none"
         transform="scale(0.2) translate(6,0)" />
    </marker>
    <marker
       style="overflow:visible"
       id="TriangleOutS"
       refX="0.0"
       refY="0.0"
       orient="auto"
       inkscape:stockid="TriangleOutS">
      <path
         transform="scale(0.2)"
         style="fill-rule:evenodd;stroke:#000000;stroke-width:1.0pt;marker-start:none"
         d="M 5.77,0.0 L -2.88,5.0 L -2.88,-5.0 L 5.77,0.0 z "
         id="path3799" />
    </marker>
    <marker
       style="overflow:visible"
       id="TriangleInS"
       refX="0.0"
       refY="0.0"
       orient="auto"
       inkscape:stockid="TriangleInS">
      <path
         transform="scale(-0.2)"
         style="fill-rule:evenodd;stroke:#000000;stroke-width:1.0pt;marker-start:none"
         d="M 5.77,0.0 L -2.88,5.0 L -2.88,-5.0 L 5.77,0.0 z "
         id="path3790" />
    </marker>
    <marker
       inkscape:stockid="Arrow1Lstart"
       orient="auto"
       refY="0.0"
       refX="0.0"
       id="Arrow1Lstart"
       style="overflow:visible">
      <path
         id="path3650"
         d="M 0.0,0.0 L 5.0,-5.0 L -12.5,0.0 L 5.0,5.0 L 0.0,0.0 z "
         style="fill-rule:evenodd;stroke:#000000;stroke-width:1.0pt;marker-start:none"
         transform="scale(0.8) translate(12.5,0)" />
    </marker>
    <marker
       inkscape:stockid="Arrow1Send"
       orient="auto"
       refY="0.0"
       refX="0.0"
       id="Arrow1Send"
       style="overflow:visible;">
      <path
         id="path4396"
         d="M 0.0,0.0 L 5.0,-5.0 L -12.5,0.0 L 5.0,5.0 L 0.0,0.0 z "
         style="fill-rule:evenodd;stroke:#000000;stroke-width:1.0pt;marker-start:none;"
         transform="scale(0.2) rotate(180) translate(6,0)" />
    </marker>
    <marker
       inkscape:stockid="Arrow2Send"
       orient="auto"
       refY="0.0"
       refX="0.0"
       id="Arrow2Send"
       style="overflow:visible;">
      <path
         id="path3644"
         style="font-size:12.0;fill-rule:evenodd;stroke-width:0.62500000;stroke-linejoin:round;"
         d="M 8.7185878,4.0337352 L -2.2072895,0.016013256 L 8.7185884,-4.0017078 C 6.9730900,-1.6296469 6.9831476,1.6157441 8.7185878,4.0337352 z "
         transform="scale(0.3) rotate(180) translate(-2.3,0)" />
    </marker>
    <marker
       inkscape:stockid="Arrow2Mend"
       orient="auto"
       refY="0.0"
       refX="0.0"
       id="Arrow2Mend"
       style="overflow:visible;">
      <path
         id="path3638"
         style="font-size:12.0;fill-rule:evenodd;stroke-width:0.62500000;stroke-linejoin:round;"
         d="M 8.7185878,4.0337352 L -2.2072895,0.016013256 L 8.7185884,-4.0017078 C 6.9730900,-1.6296469 6.9831476,1.6157441 8.7185878,4.0337352 z "
         transform="scale(0.6) rotate(180) translate(0,0)" />
    </marker>
    <marker
       inkscape:stockid="Arrow1Lend"
       orient="auto"
       refY="0.0"
       refX="0.0"
       id="Arrow1Lend"
       style="overflow:visible;">
      <path
         id="path3614"
         d="M 0.0,0.0 L 5.0,-5.0 L -12.5,0.0 L 5.0,5.0 L 0.0,0.0 z "
         style="fill-rule:evenodd;stroke:#000000;stroke-width:1.0pt;marker-start:none;"
         transform="scale(0.8) rotate(180) translate(12.5,0)" />
    </marker>
    <linearGradient
       id="linearGradient3594">
      <stop
         style="stop-color:#8b8b8b;stop-opacity:1;"
         offset="0"
         id="stop3596" />
      <stop
         style="stop-color:#ffffff;stop-opacity:1;"
         offset="1"
         id="stop3598" />
    </linearGradient>
    <linearGradient
       id="linearGradient3619">
      <stop
         style="stop-color:#7e7e7e;stop-opacity:1;"
         offset="0"
         id="stop3621" />
      <stop
         style="stop-color:#ffffff;stop-opacity:1;"
         offset="1"
         id="stop3623" />
    </linearGradient>
    <inkscape:perspective
       sodipodi:type="inkscape:persp3d"
       inkscape:vp_x="0 : 526.18109 : 1"
       inkscape:vp_y="0 : 1000 : 0"
       inkscape:vp_z="744.09448 : 526.18109 : 1"
       inkscape:persp3d-origin="372.04724 : 350.78739 : 1"
       id="perspective10" />
    <radialGradient
       inkscape:collect="always"
       xlink:href="#linearGradient3619"
       id="radialGradient3625"
       cx="200.73691"
       cy="978.99298"
       fx="200.73691"
       fy="978.99298"
       r="73.451585"
       gradientTransform="matrix(1.2356686,-0.80521527,1.6978973,2.6055623,-1634.6325,-1339.7914)"
       gradientUnits="userSpaceOnUse" />
    <radialGradient
       inkscape:collect="always"
       xlink:href="#linearGradient3619"
       id="radialGradient3631"
       gradientUnits="userSpaceOnUse"
       gradientTransform="matrix(1.2356686,-0.80521527,1.6978973,2.6055623,-1634.6325,-1339.7914)"
       cx="200.73691"
       cy="978.99298"
       fx="200.73691"
       fy="978.99298"
       r="73.451585" />
    <marker
       inkscape:stockid="Arrow1Lstarto"
       orient="auto"
       refY="0.0"
       refX="0.0"
       id="Arrow1Lstarto"
       style="overflow:visible">
      <path
         id="path4701"
         d="M 0.0,0.0 L 5.0,-5.0 L -12.5,0.0 L 5.0,5.0 L 0.0,0.0 z "
         style="marker-start:none;stroke:#c30000;stroke-width:1.0pt;fill:#c30000;fill-rule:evenodd"
         transform="scale(0.8) translate(12.5,0)" />
    </marker>
    <marker
       inkscape:stockid="Arrow1LendU"
       orient="auto"
       refY="0.0"
       refX="0.0"
       id="Arrow1LendU"
       style="overflow:visible;">
      <path
         id="path4704"
         d="M 0.0,0.0 L 5.0,-5.0 L -12.5,0.0 L 5.0,5.0 L 0.0,0.0 z "
         style="marker-start:none;stroke:#c30000;stroke-width:1.0pt;fill:#c30000;fill-rule:evenodd"
         transform="scale(0.8) rotate(180) translate(12.5,0)" />
    </marker>
    <marker
       style="overflow:visible"
       id="TriangleOutS1"
       refX="0.0"
       refY="0.0"
       orient="auto"
       inkscape:stockid="TriangleOutS1">
      <path
         transform="scale(0.2)"
         style="marker-start:none;stroke:#9f9f9f;stroke-width:1.0pt;fill:#9f9f9f;fill-rule:evenodd"
         d="M 5.77,0.0 L -2.88,5.0 L -2.88,-5.0 L 5.77,0.0 z "
         id="path5583" />
    </marker>
    <marker
       inkscape:stockid="Arrow1Sstartn"
       orient="auto"
       refY="0.0"
       refX="0.0"
       id="Arrow1Sstartn"
       style="overflow:visible">
      <path
         id="path4595"
         d="M 0.0,0.0 L 5.0,-5.0 L -12.5,0.0 L 5.0,5.0 L 0.0,0.0 z "
         style="marker-start:none;stroke:#c30000;stroke-width:1.0pt;fill:#c30000;fill-rule:evenodd"
         transform="scale(0.2) translate(6,0)" />
    </marker>
    <marker
       inkscape:stockid="Arrow1SendF"
       orient="auto"
       refY="0.0"
       refX="0.0"
       id="Arrow1SendF"
       style="overflow:visible;">
      <path
         id="path4598"
         d="M 0.0,0.0 L 5.0,-5.0 L -12.5,0.0 L 5.0,5.0 L 0.0,0.0 z "
         style="marker-start:none;stroke:#c30000;stroke-width:1.0pt;fill:#c30000;fill-rule:evenodd"
         transform="scale(0.2) rotate(180) translate(6,0)" />
    </marker>
    <marker
       inkscape:stockid="Arrow1Sstartk"
       orient="auto"
       refY="0.0"
       refX="0.0"
       id="Arrow1Sstartk"
       style="overflow:visible">
      <path
         id="path4601"
         d="M 0.0,0.0 L 5.0,-5.0 L -12.5,0.0 L 5.0,5.0 L 0.0,0.0 z "
         style="marker-start:none;stroke:#c30000;stroke-width:1.0pt;fill:#c30000;fill-rule:evenodd"
         transform="scale(0.2) translate(6,0)" />
    </marker>
    <marker
       inkscape:stockid="Arrow1Send7"
       orient="auto"
       refY="0.0"
       refX="0.0"
       id="Arrow1Send7"
       style="overflow:visible;">
      <path
         id="path4604"
         d="M 0.0,0.0 L 5.0,-5.0 L -12.5,0.0 L 5.0,5.0 L 0.0,0.0 z "
         style="marker-start:none;stroke:#c30000;stroke-width:1.0pt;fill:#c30000;fill-rule:evenodd"
         transform="scale(0.2) rotate(180) translate(6,0)" />
    </marker>
    <radialGradient
       gradientTransform="matrix(-1.0000844,5.1706418e-7,-6.0332434e-7,-1.1686622,279.65852,1720.2631)"
       gradientUnits="userSpaceOnUse"
       r="55"
       fy="819.65601"
       fx="179.64285"
       cy="819.65601"
       cx="179.64285"
       id="radialGradient3724"
       xlink:href="#linearGradient3718"
       inkscape:collect="always" />
    <radialGradient
       r="55"
       fy="819.65601"
       fx="179.64285"
       cy="819.65601"
       cx="179.64285"
       gradientTransform="matrix(-1.0000844,5.1706418e-7,-6.0332434e-7,-1.1686622,379.65852,1720.2631)"
       gradientUnits="userSpaceOnUse"
       id="radialGradient3728"
       xlink:href="#linearGradient3730"
       inkscape:collect="always" />
    <radialGradient
       r="55"
       fy="819.65601"
       fx="179.64285"
       cy="819.65601"
       cx="179.64285"
       gradientTransform="matrix(-1.0000844,5.1706418e-7,-6.0332434e-7,-1.1686622,479.65852,1720.2631)"
       gradientUnits="userSpaceOnUse"
       id="radialGradient3738"
       xlink:href="#linearGradient3740"
       inkscape:collect="always" />
    <radialGradient
       r="55"
       fy="819.65601"
       fx="179.64285"
       cy="819.65601"
       cx="179.64285"
       gradientTransform="matrix(-1.0000844,5.1706418e-7,-6.0332434e-7,-1.1686622,239.65852,1940.2631)"
       gradientUnits="userSpaceOnUse"
       id="radialGradient3752"
       xlink:href="#linearGradient3718"
       inkscape:collect="always" />
    <radialGradient
       r="55"
       fy="819.65601"
       fx="179.64285"
       cy="819.65601"
       cx="179.64285"
       gradientTransform="matrix(-1.0000844,5.1706418e-7,-6.0332434e-7,-1.1686622,379.65852,1940.2631)"
       gradientUnits="userSpaceOnUse"
       id="radialGradient3754"
       xlink:href="#linearGradient3730"
       inkscape:collect="always" />
    <radialGradient
       r="55"
       fy="819.65601"
       fx="179.64285"
       cy="819.65601"
       cx="179.64285"
       gradientTransform="matrix(-1.0000844,5.1706418e-7,-6.0332434e-7,-1.1686622,519.65852,1940.2631)"
       gradientUnits="userSpaceOnUse"
       id="radialGradient3756"
       xlink:href="#linearGradient3740"
       inkscape:collect="always" />
  </defs>
  <metadata
     id="metadata7">
    <rdf:RDF>
      <cc:Work
         rdf:about="">
        <dc:format>image/svg+xml</dc:format>
        <dc:type
           rdf:resource="http://purl.org/dc/dcmitype/StillImage" />
        <dc:title />
      </cc:Work>
    </rdf:RDF>
  </metadata>
  <g
     inkscape:label="Layer 1"
     inkscape:groupmode="layer"
     id="layer1"
     transform="translate(0,-652.3622)">
    <g
       id="g2948"
       transform="matrix(14.565892,0,0,14.565892,-2242.5336,-34.242846)">
      <g
         word-spacing="normal"
         letter-spacing="normal"
         font-size-adjust="none"
         font-stretch="normal"
         font-weight="normal"
         font-variant="normal"
         font-style="normal"
         stroke-miterlimit="10.433"
         xml:space="preserve"
         transform="matrix(0.57142857,0,0,-0.57142857,-100,300)"
         id="content"
         style="font-style:normal;font-variant:normal;font-weight:normal;font-stretch:normal;letter-spacing:normal;word-spacing:normal;text-anchor:start;fill:none;stroke:#000000;stroke-width:0.06865354;stroke-linecap:butt;stroke-linejoin:miter;stroke-miterlimit:10.43299961;stroke-opacity:1;stroke-dasharray:none;stroke-dashoffset:0"><path
           id="path2951"
           d="m 467.91,413.82 0,0 0,0.01 0.01,0.01 0.01,0.01 0.01,0.02 0.01,0.01 0.01,0.02 0.02,0.02 0.01,0.01 0.02,0.02 0.02,0.02 0.01,0.02 0.02,0.02 0.02,0.02 0.02,0.02 0.04,0.03 0.05,0.04 0.02,0.02 0.02,0.01 0.02,0.02 0.02,0.02 0.02,0.01 0.02,0.01 0.02,0.02 0.02,0.01 0.02,0.01 0.02,0 0.02,0.01 0.01,0.01 0.01,0 0.01,0 0.01,0 0,0 c 0.2,0 2.1,-2.19 2.44,-2.54 1.45,-1.6 2.9,-3.19 4.39,-4.68 0.2,-0.25 0.34,-0.25 0.4,-0.25 0.39,0 0.54,0.34 0.54,0.54 0,0.25 -1.54,2.95 -2.99,5.48 l -1.94,3.59 8.67,3.98 c 0.7,0.36 0.75,0.56 0.75,0.75 0,0.25 -0.2,0.5 -0.55,0.5 -0.05,0 -2.49,-0.45 -9.96,-1.94 l -1.15,9.36 c -0.1,0.9 -0.15,1.1 -0.6,1.1 -0.4,0 -0.54,-0.25 -0.65,-1.1 l -1.09,-9.36 -9.21,1.84 c -0.25,0.05 -0.6,0.1 -0.75,0.1 -0.35,0 -0.55,-0.25 -0.55,-0.5 0,-0.39 0.25,-0.5 0.8,-0.75 l 8.66,-3.98 -4.63,-8.27 c -0.3,-0.6 -0.35,-0.64 -0.35,-0.8 0,-0.2 0.15,-0.54 0.55,-0.54 0.1,0 0.25,0 0.75,0.54 z"
           style="fill:#000000;stroke-width:0" /></g>    </g>
  </g>
</svg>
